<svg width="322" height="143" viewBox="0 0 322 143" fill="none" xmlns="http://www.w3.org/2000/svg">
<path d="M195.621 451.081C232.927 430.835 264.197 401.056 286.241 364.782C308.285 328.508 320.314 287.037 321.102 244.598C321.89 202.159 311.408 160.27 290.726 123.203C270.044 86.1358 239.901 55.217 203.371 33.5996C166.842 11.9822 125.233 0.439555 82.7872 0.148768C40.3416 -0.14202 -1.42178 10.8295 -38.244 31.9444C-75.0662 53.0592 -105.63 83.5621 -126.818 120.342C-148.006 157.122 -159.06 198.864 -158.854 241.31L-85.0406 240.951C-85.1835 211.56 -77.5289 182.656 -62.8575 157.188C-48.186 131.72 -27.0225 110.599 -1.52533 95.9779C23.9718 81.3571 52.8905 73.76 82.2815 73.9614C111.673 74.1627 140.484 82.1553 165.779 97.1241C191.073 112.093 211.945 133.502 226.267 159.169C240.588 184.836 247.846 213.841 247.3 243.228C246.755 272.615 238.425 301.331 223.161 326.448C207.897 351.566 186.245 372.186 160.412 386.205L195.621 451.081Z" fill="white" fill-opacity="0.14"/>
</svg>
